<svg width="166" height="58" viewBox="0 0 166 58" fill="none" xmlns="http://www.w3.org/2000/svg">
<g clip-path="url(#clip0_105_91)">
<path fill-rule="evenodd" clip-rule="evenodd" d="M47.182 15.7301C47.1869 15.7422 47.1941 15.7543 47.1965 15.7663C47.2137 15.831 47.2226 15.8976 47.2231 15.9645V26.3392C47.2234 26.4719 47.1889 26.6024 47.1229 26.7175C47.057 26.8327 46.9619 26.9285 46.8473 26.9954L38.2222 32.01V41.9461C38.2224 42.0789 38.1877 42.2094 38.1215 42.3246C38.0554 42.4397 37.9601 42.5355 37.8452 42.6022L19.8423 53.0664C19.8009 53.0888 19.7571 53.1066 19.7118 53.1195C19.6949 53.1268 19.6792 53.1365 19.661 53.1413C19.5352 53.1751 19.4026 53.1751 19.2768 53.1413C19.2652 53.1383 19.2538 53.1343 19.243 53.1292L19.2188 53.1171C19.1765 53.1014 19.1342 53.0881 19.0943 53.0652L1.09137 42.6022C0.976839 42.5352 0.881869 42.4394 0.815931 42.3243C0.749993 42.2092 0.715391 42.0788 0.715577 41.9461V10.8218C0.716041 10.7554 0.724562 10.6893 0.740952 10.6249C0.748202 10.6019 0.760285 10.5826 0.767535 10.5608L0.791702 10.4968C0.798439 10.4785 0.806516 10.4607 0.815869 10.4436C0.830369 10.4195 0.85091 10.3989 0.867827 10.376C0.889577 10.3457 0.907702 10.3155 0.934285 10.2877C0.956035 10.266 0.982619 10.2515 1.00679 10.231C1.03458 10.2092 1.05995 10.185 1.09016 10.1669L10.0922 4.93483C10.206 4.8686 10.3352 4.83371 10.4668 4.83371C10.5984 4.83371 10.7277 4.8686 10.8414 4.93483L19.8435 10.1669C19.8737 10.185 19.8991 10.2092 19.9269 10.231L19.9522 10.2503C19.9692 10.2624 19.9861 10.2745 20.0006 10.2877C20.0186 10.3067 20.0348 10.3274 20.0489 10.3494L20.067 10.376C20.0827 10.4001 20.1033 10.4182 20.1178 10.4436C20.1383 10.4799 20.1516 10.521 20.1661 10.5608L20.1782 10.5874L20.1927 10.6237C20.2096 10.6884 20.2182 10.755 20.2181 10.8218V30.2615L27.7194 25.9018V15.9645C27.7198 15.898 27.7287 15.8318 27.746 15.7675C27.752 15.7446 27.7641 15.7253 27.7714 15.7035L27.7798 15.6793C27.7948 15.6182 27.8267 15.5626 27.8717 15.5186C27.8934 15.4884 27.9127 15.4582 27.9381 15.4304C27.9502 15.4183 27.9623 15.4099 27.9744 15.4002C27.9865 15.3917 27.9997 15.3833 28.0106 15.3736L28.0541 15.3374C28.0667 15.3271 28.08 15.3178 28.094 15.3096L37.0961 10.0775C37.2098 10.0113 37.3391 9.97638 37.4707 9.97638C37.6023 9.97638 37.7315 10.0113 37.8452 10.0775L46.8473 15.3096C46.8787 15.3277 46.9029 15.3531 46.9307 15.3736L46.9573 15.393C46.973 15.405 46.9899 15.4171 47.0032 15.4304C47.0214 15.4497 47.0376 15.4707 47.0515 15.4932L47.0709 15.5186L47.0902 15.5428C47.1023 15.5573 47.1132 15.5706 47.1216 15.5863C47.138 15.6173 47.1517 15.6496 47.1627 15.683L47.1699 15.7035L47.182 15.7301ZM11.9797 36.7974L19.4665 41.0749L35.9627 31.5689L28.4698 27.2129L11.9797 36.7974ZM36.7215 30.2615V21.634L29.2202 17.2755V25.903L36.7203 30.2615H36.7215ZM44.9696 15.9669L37.4707 11.6072L29.9729 15.9657L37.4707 20.323L44.9696 15.9657V15.9669ZM11.2172 16.4913V35.4936L18.7185 31.1327V12.1317L11.216 16.4913H11.2172ZM17.9645 10.8218L10.4668 6.46458L2.96791 10.8218L10.4668 15.1803L17.9645 10.8218ZM9.71645 16.4937L2.21512 12.1317V41.5062L18.7197 51.1004V42.3883L10.0983 37.4632H10.0959L10.091 37.4583C10.0608 37.4402 10.0367 37.416 10.0101 37.3943C9.98398 37.3794 9.96 37.3612 9.93878 37.3399L9.93637 37.3375C9.92066 37.3218 9.90737 37.3025 9.89408 37.2843C9.88785 37.2753 9.8814 37.2665 9.87474 37.2577L9.83849 37.2118C9.83141 37.203 9.82495 37.1937 9.81916 37.184L9.81795 37.1816C9.80624 37.161 9.79692 37.1391 9.79016 37.1164L9.77808 37.0874L9.75995 37.0475C9.75301 37.0327 9.74735 37.0173 9.74303 37.0016C9.73649 36.9746 9.73245 36.9471 9.73095 36.9194L9.72733 36.8892C9.726 36.8787 9.72439 36.8682 9.72249 36.8578C9.72008 36.8409 9.71645 36.8227 9.71645 36.8046V16.4937V16.495V16.4937ZM20.2181 42.3883V51.1004L36.7203 41.5099V32.8787L20.2181 42.3883V42.3895V42.3883ZM38.2222 30.2603L45.7236 25.9006V17.2731L38.2222 21.6352V30.2627V30.2603Z" fill="#F1E4D5"/>
<path d="M161.109 15.9669H165.049V41.5183H161.109V15.9669ZM59.1904 15.9669H63.3483V37.7604H71.1578V41.5183H59.1904V15.9693V15.9669Z" fill="#F1E4D5"/>
<path fill-rule="evenodd" clip-rule="evenodd" d="M83.5782 24.801C84.5546 25.288 85.3062 25.9562 85.8378 26.8069V24.5086H89.7782V41.5183H85.8378V39.2189C85.3074 40.0708 84.5546 40.7402 83.5782 41.2247C82.6019 41.7129 81.6207 41.9558 80.6299 41.9558C79.3527 41.9558 78.1842 41.7189 77.1233 41.2428C76.0883 40.7875 75.1586 40.1231 74.3925 39.2914C73.6311 38.4604 73.0308 37.495 72.6223 36.4445C72.1958 35.3511 71.9809 34.1865 71.9891 33.0129C71.9891 31.8215 72.1994 30.6832 72.6223 29.6005C73.0284 28.5432 73.6293 27.5714 74.3937 26.7356C75.1599 25.9037 76.0896 25.2389 77.1245 24.7829C78.1842 24.308 79.3527 24.07 80.6311 24.07C81.6195 24.07 82.6007 24.3141 83.5782 24.801ZM84.4639 36.8095C84.9074 36.3068 85.2506 35.7244 85.4765 35.0936C85.7182 34.4266 85.8414 33.7234 85.839 33.0141C85.839 32.283 85.7182 31.5883 85.4765 30.9333C85.2509 30.3024 84.9072 29.7201 84.4639 29.2175C84.0235 28.7261 83.4884 28.3286 82.8907 28.049C82.2514 27.7521 81.5535 27.6026 80.8486 27.6116C80.0995 27.6116 79.4252 27.7566 78.8222 28.049C78.2323 28.3322 77.7041 28.7293 77.2683 29.2175C76.8333 29.7045 76.5022 30.276 76.2739 30.9333C76.0427 31.6025 75.9266 32.3061 75.9307 33.0141C75.9307 33.7439 76.0443 34.4375 76.2739 35.0924C76.4884 35.7246 76.8264 36.3078 77.2683 36.8083C77.7033 37.2964 78.2205 37.6855 78.8222 37.9779C79.4554 38.2764 80.1478 38.425 80.8474 38.4153C81.5942 38.4153 82.2757 38.2703 82.8907 37.9779C83.4888 37.6988 84.0241 37.3013 84.4639 36.8095ZM117.873 26.8081C117.341 25.9562 116.589 25.288 115.614 24.801C114.637 24.3141 113.656 24.0712 112.665 24.0712C111.388 24.0712 110.22 24.308 109.159 24.7829C108.124 25.2389 107.194 25.9037 106.428 26.7356C105.664 27.5711 105.063 28.5425 104.658 29.5993C104.235 30.688 104.02 31.8468 104.024 33.0141C104.024 34.2309 104.235 35.374 104.658 36.4458C105.066 37.4958 105.668 38.4613 106.429 39.2914C107.195 40.1235 108.125 40.7883 109.16 41.244C110.22 41.7189 111.388 41.957 112.666 41.957C113.655 41.957 114.636 41.7129 115.614 41.2259C116.59 40.7402 117.341 40.0708 117.873 39.2201V41.5183H121.814V24.5086H117.873V26.8081ZM117.511 35.0936C117.285 35.7247 116.941 36.307 116.498 36.8095C116.058 37.3011 115.524 37.6986 114.926 37.9779C114.287 38.275 113.589 38.4245 112.884 38.4153C112.136 38.4153 111.461 38.2703 110.858 37.9779C110.262 37.6918 109.729 37.2892 109.291 36.7938C108.854 36.2984 108.52 35.7203 108.309 35.0936C108.078 34.4249 107.961 33.7218 107.965 33.0141C107.965 32.283 108.08 31.5883 108.309 30.9333C108.523 30.3009 108.861 29.7175 109.304 29.2175C109.739 28.7293 110.268 28.3318 110.858 28.049C111.49 27.7506 112.183 27.601 112.883 27.6116C113.629 27.6116 114.311 27.7566 114.925 28.049C115.541 28.3415 116.064 28.7318 116.498 29.2175C116.933 29.7045 117.27 30.276 117.512 30.9333C117.751 31.5895 117.873 32.283 117.873 33.0141C117.873 33.7439 117.752 34.4375 117.511 35.0924V35.0936Z" fill="#F1E4D5"/>
<path d="M92.8884 41.5183H96.83V28.4236H103.592V24.5086H92.8872V41.5183H92.8884ZM132.662 37.5345L137.615 24.5086H141.607L135.138 41.5183H130.185L123.717 24.5086H127.708L132.662 37.5345Z" fill="#F1E4D5"/>
<path fill-rule="evenodd" clip-rule="evenodd" d="M150.203 24.07C145.377 24.07 141.557 28.0756 141.557 33.0117C141.557 38.4733 145.254 41.9558 150.708 41.9558C153.761 41.9558 155.71 40.7776 158.09 38.2123L155.428 36.1328C155.426 36.1328 153.418 38.796 150.42 38.796C146.935 38.796 145.467 35.9588 145.467 34.4919H158.542C159.228 28.8731 155.57 24.0712 150.203 24.0712V24.07ZM145.478 31.5351C145.508 31.2088 145.962 27.231 150.172 27.231C154.382 27.231 154.893 31.2064 154.922 31.5351H145.478Z" fill="#F1E4D5"/>
</g>
<defs>
<clipPath id="clip0_105_91">
<rect width="164.333" height="58" fill="white" transform="translate(0.715576)"/>
</clipPath>
</defs>
</svg>
