<svg width="120" height="120" viewBox="0 0 120 120" fill="none" xmlns="http://www.w3.org/2000/svg">
<g clip-path="url(#clip0_3_13)">
<path d="M59.9978 12.3326C33.7054 12.3326 12.3929 33.6451 12.3929 59.9353C12.3929 86.2277 33.7054 107.54 59.9978 107.54C86.2879 107.54 107.6 86.2277 107.6 59.9353C107.6 33.6451 86.2879 12.3326 59.9978 12.3326Z" fill="#F1E4D5"/>
<path fill-rule="evenodd" clip-rule="evenodd" d="M124.295 -27.0513C102.9 -24.2522 81.7902 -16.5491 62.0156 -7.31919C43.0469 1.53796 21.1942 25.7121 58.5893 24.1094C64.9063 23.8371 71.4844 21.6652 77.942 20.933C88.6027 19.7165 94.6272 24.2031 80.3772 31.5804C72.067 35.8839 63.4085 39.529 55.2723 44.1384C46.942 48.8639 48.3616 53.1942 57.4576 53.8572C64.7321 54.3772 71.3973 56.6697 62.4063 63.5536C54.3125 69.7366 52.9911 76.163 53.279 80.971C55.6563 71.7924 60.8929 65.9799 69.625 62.9085C72.2321 61.9933 76.3438 60.8594 78.3705 59.8058C84.4554 56.6183 84.5737 53.3281 71.4085 52.4621C61.9665 51.8393 65.4933 43.4933 75.6339 38.5223C82.5513 35.1473 93.3549 35.0536 100.888 33.2366C130.297 26.1473 126.596 8.39064 96.7321 12.6072C84.8772 14.2746 72.5357 18.5647 62.6875 18.4621C45.0402 18.2813 47.0045 6.8884 58.2054 -1.26785C76.0179 -14.2522 101.196 -22.5424 124.295 -27.0513Z" fill="#202024"/>
<path fill-rule="evenodd" clip-rule="evenodd" d="M81.567 81.4241V84.7812H84.5893C86.7701 84.7812 88.7455 85.6763 90.1763 87.1027H90.1719C91.6049 88.5402 92.4978 90.5223 92.4978 92.7009C92.4978 94.8616 91.6049 96.8326 90.1763 98.2745H90.1719V98.279C88.7366 99.712 86.7634 100.6 84.5893 100.6H78.5156C74.7254 106.98 67.7567 111.281 59.8348 111.281C47.8817 111.281 38.1027 101.493 38.1027 89.5335V81.4241H81.567ZM81.567 87.1942V89.5335C81.567 92.6049 80.9174 95.5312 79.7545 98.192H84.5893C86.1027 98.192 87.4821 97.5759 88.4688 96.5759L88.4732 96.5714C89.471 95.5826 90.0848 94.2031 90.0848 92.7009C90.0848 91.1786 89.471 89.8058 88.4732 88.8058H88.4688C87.4821 87.8125 86.1027 87.1942 84.5893 87.1942H81.567Z" fill="#202024"/>
</g>
<defs>
<clipPath id="clip0_3_13">
<rect width="120" height="120" fill="white"/>
</clipPath>
</defs>
</svg>
