<svg width="168" height="58" viewBox="0 0 168 58" fill="none" xmlns="http://www.w3.org/2000/svg">
<g clip-path="url(#clip0_105_85)">
<path fill-rule="evenodd" clip-rule="evenodd" d="M37.5974 6.04166C42.4114 6.04166 46.3131 9.97599 46.3131 14.8299C46.3172 16.6335 45.7662 18.3947 44.7349 19.8744C43.7035 21.3541 42.2418 22.4806 40.5482 23.1009L47.5734 35.7425H52.3826C53.1233 35.7425 53.7238 36.3467 53.7238 37.0934C53.7238 37.8402 53.1233 38.4443 52.3826 38.4443H2.30684C1.56734 38.4443 0.966797 37.8402 0.966797 37.0934C0.966797 36.3467 1.56734 35.7425 2.30805 35.7425H7.11721L19.6271 13.3134C19.7392 13.1116 19.9016 12.9423 20.0986 12.8219C20.2955 12.7016 20.5203 12.6343 20.751 12.6266C20.9817 12.6189 21.2105 12.6711 21.415 12.7782C21.6195 12.8852 21.7929 13.0434 21.9181 13.2373L29.1053 24.3407L31.3407 20.9464C29.7591 19.3034 28.8775 17.1104 28.8817 14.8299C28.8817 9.97599 32.7846 6.04166 37.5986 6.04166H37.5974ZM30.699 26.8044L36.4846 35.7425H44.5006L35.4901 19.5291L30.699 26.8044ZM33.2849 35.7425L20.8789 16.5783L10.1912 35.7425H33.2849ZM43.7998 14.8299C43.8034 16.1858 43.3659 17.5061 42.5533 18.5916C41.7407 19.677 40.5971 20.4688 39.2951 20.8474L36.7564 16.2787C36.645 16.0773 36.4835 15.9082 36.2876 15.7875C36.0916 15.6669 35.8678 15.599 35.6379 15.5902C35.4079 15.5815 35.1796 15.6322 34.9751 15.7376C34.7705 15.843 34.5966 15.9994 34.4703 16.1917L32.7762 18.7654C31.879 17.6502 31.3911 16.2612 31.3938 14.8299C31.3938 11.3752 34.1718 8.57553 37.5974 8.57553C41.023 8.57553 43.7998 11.3752 43.7998 14.8299Z" fill="#F1E4D5"/>
<path d="M12.5898 42.5007C11.8515 42.5007 11.2521 43.1049 11.2521 43.8504C11.2521 44.596 11.8515 45.1989 12.5898 45.1989H42.0973C42.8368 45.1989 43.4361 44.5947 43.4361 43.8504C43.4361 43.1049 42.8368 42.5007 42.0985 42.5007H12.5898ZM22.8763 49.2553C22.1356 49.2553 21.5351 49.8595 21.5351 50.6074C21.5351 51.353 22.1356 51.9583 22.8763 51.9583H31.8131C32.5526 51.9583 33.1532 51.3542 33.1532 50.6074C33.1532 49.8607 32.5526 49.2541 31.8119 49.2541H22.8763V49.2553Z" fill="#F1E4D5"/>
<path fill-rule="evenodd" clip-rule="evenodd" d="M145.998 26.4274C144.812 24.917 143.034 24.1038 140.746 24.1038C137.14 24.1038 133.436 27.1585 133.436 32.3036C133.436 37.4487 137.14 40.5033 140.746 40.5033C143.034 40.5033 144.812 39.7058 145.998 38.1797V39.4581C145.998 42.4125 144.22 44.2069 140.993 44.2069C139.067 44.2069 137.239 43.5737 135.643 42.5949L134.391 45.5336C136.054 46.7299 138.638 47.3763 140.993 47.3763C146.262 47.3763 149.455 44.3072 149.455 39.3083V24.5183H145.998V26.4274ZM136.976 32.3036C136.976 29.615 138.72 27.3736 141.634 27.3736C144.417 27.3736 146.294 29.5159 146.294 32.3036C146.294 35.0924 144.417 37.2336 141.634 37.2336C138.72 37.2336 136.976 34.9776 136.976 32.3036ZM127.044 26.4444C125.958 25.033 124.328 24.1038 122.089 24.1038C117.679 24.1038 114.203 27.6056 114.203 32.4691C114.203 37.3327 117.677 40.8356 122.089 40.8356C124.329 40.8356 125.958 39.9233 127.044 38.512V40.4212H130.486V24.5195H127.044V26.4444ZM117.743 32.4691C117.743 29.6815 119.538 27.3736 122.501 27.3736C125.349 27.3736 127.259 29.5643 127.259 32.4691C127.259 35.3739 125.349 37.5659 122.501 37.5659C119.538 37.5659 117.743 35.2579 117.743 32.4691ZM167.716 32.4534C167.7 27.4908 164.671 24.1038 160.258 24.1038C155.615 24.1038 152.405 27.4908 152.405 32.4703C152.405 37.5163 155.747 40.8368 160.472 40.8368C162.859 40.8368 165.032 40.2568 166.958 38.5966L165.246 36.1219C163.946 37.1671 162.266 37.7991 160.686 37.7991C158.446 37.7991 156.455 36.6028 155.994 33.7475H167.65C167.683 33.35 167.716 32.9017 167.716 32.4546V32.4534ZM156.01 31.1085C156.373 28.7849 157.738 27.1911 160.191 27.1911C162.382 27.1911 163.814 28.6351 164.192 31.1085H156.01Z" fill="#F1E4D5"/>
<path d="M78.7013 33.7814L71.9999 17.1813H66.2881V40.4212H70.0098V21.4805L76.7402 38.1471H80.6588L87.3928 21.2981V40.4212H91.1145V17.1813H85.4003L78.7001 33.7814H78.7013ZM99.0871 40.4212V24.5195H95.6313V40.4212H99.0871ZM113.807 24.5521C113.017 24.2367 112.21 24.105 111.156 24.105C109.23 24.105 107.616 24.801 106.579 26.3114V24.5171H103.171V40.4187H106.613V31.6704C106.613 28.9662 108.176 27.405 110.366 27.405C111.205 27.405 112.259 27.6044 112.983 27.985L113.807 24.5509V24.5521ZM99.7783 19.024C99.7783 17.6465 98.7077 16.5674 97.341 16.5674C95.9756 16.5674 94.9365 17.6465 94.9365 19.024C94.9365 20.4015 95.9756 21.4479 97.341 21.4479C98.7077 21.4479 99.7783 20.4015 99.7783 19.024Z" fill="#F1E4D5"/>
</g>
<defs>
<clipPath id="clip0_105_85">
<rect width="166.75" height="58" fill="white" transform="translate(0.965576)"/>
</clipPath>
</defs>
</svg>
