<svg width="154" height="58" viewBox="0 0 154 58" fill="none" xmlns="http://www.w3.org/2000/svg">
<g clip-path="url(#clip0_105_83)">
<path d="M4.50685 34.9245L22.3298 15.8135L18.329 12.0833L0.507263 31.1943L4.50685 34.9245ZM7.50593 47.125L25.3264 28.014L21.3268 24.2839L3.50635 43.3949L7.50593 47.125ZM45.2796 25.114C44.8147 24.5327 44.2178 24.0708 43.5384 23.7667C42.8207 23.4332 42.1295 23.2665 41.4625 23.2665C41.1193 23.2665 40.7713 23.2967 40.4185 23.3571C40.081 23.4119 39.7571 23.5304 39.4639 23.7063C39.1812 23.8779 38.9443 24.1002 38.751 24.3721C38.5601 24.6452 38.4646 24.9932 38.4646 25.4173C38.4646 25.7798 38.5396 26.0843 38.6918 26.326C38.8428 26.5676 39.0652 26.7803 39.3576 26.9628C39.65 27.144 39.998 27.3108 40.4028 27.4618C40.8064 27.6141 41.2607 27.7699 41.7658 27.9318C42.4932 28.1735 43.2508 28.4418 44.0375 28.7342C44.8069 29.017 45.5314 29.4098 46.1883 29.9002C46.8379 30.3887 47.3838 31.0015 47.7942 31.7031C48.2171 32.4196 48.4298 33.3138 48.4298 34.3843C48.4298 35.6156 48.2026 36.6802 47.7483 37.5792C47.3158 38.4517 46.6892 39.2135 45.9164 39.8061C45.1278 40.4023 44.2337 40.8443 43.2811 41.1087C42.286 41.3918 41.2561 41.5342 40.2216 41.5316C38.687 41.5316 37.2019 41.2658 35.7688 40.7305C34.3346 40.1952 33.1431 39.4328 32.1934 38.4431L35.5864 34.9897C36.112 35.6362 36.8032 36.1763 37.6611 36.6101C38.519 37.0451 39.3733 37.2626 40.2216 37.2626C40.6046 37.2626 40.978 37.2215 41.3417 37.1406C41.7054 37.0596 42.0232 36.9279 42.2963 36.7466C42.5681 36.5654 42.7856 36.3225 42.9476 36.0192C43.1095 35.7171 43.1892 35.3534 43.1892 34.9293C43.1892 34.5257 43.0889 34.1813 42.8871 33.8986C42.6528 33.5868 42.3592 33.3244 42.0232 33.1265C41.5836 32.864 41.1163 32.6509 40.63 32.4909C40.0741 32.2988 39.4434 32.0921 38.7365 31.8698C38.05 31.6476 37.3773 31.3845 36.7222 31.082C36.0791 30.7878 35.4862 30.3943 34.9653 29.9159C34.4408 29.428 34.0185 28.8406 33.7231 28.188C33.4102 27.5126 33.2543 26.6897 33.2543 25.7206C33.2543 24.5292 33.496 23.5093 33.9805 22.6611C34.4518 21.8286 35.1043 21.1144 35.8897 20.5707C36.6994 20.0156 37.6023 19.6104 38.5553 19.3744C39.534 19.1231 40.543 18.995 41.5543 18.995C42.7651 18.995 44.0024 19.2173 45.2639 19.662C46.5266 20.1067 47.6323 20.7616 48.582 21.6316L45.2796 25.114ZM56.9727 29.6283V35.3836C56.9727 36.0905 57.1092 36.6198 57.3811 36.9738C57.6542 37.3266 58.1436 37.5043 58.8504 37.5043C59.0921 37.5043 59.3507 37.4837 59.6238 37.4438C59.8582 37.4136 60.0866 37.3532 60.3041 37.2626L60.3645 40.8961C60.0225 41.0169 59.5875 41.1232 59.0631 41.2151C58.5427 41.3052 58.0156 41.3505 57.4874 41.3504C56.4773 41.3504 55.629 41.2247 54.9427 40.9722C54.2563 40.7196 53.7066 40.3559 53.2921 39.8823C52.8695 39.3917 52.5637 38.8116 52.3979 38.1858C52.2087 37.4691 52.1172 36.7302 52.1261 35.989V29.6283H49.7021V25.9018H52.0946V21.9337H56.9727V25.9018H60.5167V29.6283H56.9727ZM71.7554 34.4133H71.1186C70.5737 34.4133 70.0239 34.4387 69.468 34.4895C68.9122 34.5402 68.4168 34.6369 67.9842 34.7771C67.583 34.8991 67.2151 35.1116 66.9088 35.3981C66.6261 35.6712 66.4847 36.0301 66.4847 36.4736C66.4847 36.7563 66.5499 36.9992 66.6816 37.201C66.8121 37.4028 66.9789 37.5635 67.1807 37.6855C67.3825 37.8063 67.6157 37.8921 67.8779 37.9429C68.1274 37.9924 68.3811 38.0179 68.6355 38.019C69.6445 38.019 70.4166 37.7411 70.9519 37.1853C71.4872 36.6294 71.7554 35.8778 71.7554 34.9293V34.4133ZM62.6373 27.9608C63.5262 27.1127 64.5845 26.4625 65.7428 26.0529C66.9031 25.6327 68.1277 25.4177 69.3617 25.4173C70.6341 25.4173 71.7095 25.5744 72.588 25.8873C73.4664 26.2003 74.1781 26.6848 74.7231 27.341C75.2693 27.9971 75.668 28.8248 75.9193 29.8253C76.1731 30.8246 76.2988 32.0112 76.2988 33.3838V40.9879H71.7554V39.382H71.6636C71.2805 40.0079 70.6993 40.4937 69.9224 40.8356C69.1249 41.1829 68.2632 41.3583 67.3933 41.3504C66.7595 41.3471 66.1284 41.2659 65.5144 41.1087C64.8819 40.953 64.2822 40.6863 63.743 40.3209C63.197 39.9452 62.746 39.4475 62.4259 38.8673C62.0815 38.2607 61.9099 37.5139 61.9099 36.6258C61.9099 35.5347 62.2084 34.6562 62.8041 33.9904C63.3998 33.3234 64.1671 32.8087 65.106 32.445C66.0448 32.0825 67.09 31.8396 68.2416 31.7188C69.3919 31.5979 70.5133 31.5363 71.6032 31.5363V31.2946C71.6032 30.5467 71.341 29.9969 70.8166 29.6428C70.2909 29.29 69.6445 29.1124 68.8772 29.1124C68.1705 29.1126 67.4726 29.2681 66.8327 29.5679C66.2192 29.8424 65.6519 30.2101 65.1507 30.6578L62.6373 27.9621V27.9608ZM85.2187 29.6283V35.3836C85.2187 36.0905 85.354 36.6198 85.6271 36.9738C85.899 37.3266 86.3883 37.5043 87.0964 37.5043C87.3381 37.5043 87.5955 37.4837 87.8686 37.4438C88.1416 37.4028 88.3688 37.3423 88.55 37.2626L88.6105 40.8961C88.1856 41.0373 87.75 41.144 87.3079 41.2151C86.7883 41.3057 86.2615 41.3504 85.7334 41.3504C84.7233 41.3504 83.875 41.2247 83.1887 40.9722C82.5023 40.7196 81.9513 40.3559 81.5381 39.8823C81.1154 39.3918 80.8096 38.8117 80.6439 38.1858C80.4543 37.4692 80.3625 36.7302 80.3708 35.989V29.6283H77.9493V25.9018H80.3418V21.9337H85.2199V25.9018H88.7639V29.6283H85.2187ZM96.4864 21.0854C96.4864 21.4697 96.4103 21.8273 96.2592 22.1608C96.1142 22.4847 95.9088 22.7771 95.6538 23.0248C95.1065 23.5331 94.3865 23.8147 93.6395 23.8126C92.8312 23.8126 92.1545 23.5444 91.6095 23.0091C91.3474 22.7626 91.1393 22.4643 90.9985 22.1332C90.8577 21.802 90.7872 21.4452 90.7915 21.0854C90.7915 20.7229 90.8628 20.3737 91.0042 20.0402C91.1455 19.7079 91.3473 19.4191 91.6095 19.1775C91.8717 18.9358 92.1751 18.7376 92.5182 18.5866C92.8614 18.4356 93.2348 18.3594 93.6395 18.3594C94.3864 18.358 95.1061 18.6395 95.6538 19.1473C95.9064 19.3889 96.1082 19.6777 96.2592 20.01C96.4115 20.3435 96.4864 20.7024 96.4864 21.0854ZM91.1564 40.9867V25.9031H96.1239V40.9891H91.1564V40.9867ZM109.611 30.7787C109.305 30.3967 108.909 30.0952 108.46 29.9002C107.995 29.6829 107.489 29.5695 106.976 29.5679C106.45 29.5679 105.975 29.6731 105.551 29.8857C105.135 30.0923 104.764 30.3808 104.461 30.734C104.159 31.0868 103.921 31.4952 103.748 31.9604C103.576 32.4353 103.489 32.9392 103.492 33.4443C103.492 33.9699 103.573 34.4641 103.734 34.9293C103.889 35.3811 104.131 35.7979 104.447 36.1558C104.759 36.5098 105.133 36.7865 105.567 36.9895C106.002 37.1913 106.491 37.2916 107.036 37.2916C107.541 37.2916 108.04 37.1949 108.535 37.004C109.03 36.8119 109.429 36.534 109.731 36.1703L112.488 39.5331C111.862 40.1396 111.055 40.6133 110.066 40.9565C109.051 41.3045 107.987 41.4785 106.914 41.4724C105.781 41.4816 104.654 41.2969 103.583 40.9263C102.59 40.5849 101.677 40.0437 100.902 39.3361C100.136 38.6272 99.527 37.7657 99.1145 36.8071C98.6795 35.8174 98.4632 34.6973 98.4632 33.4443C98.4632 32.2118 98.6807 31.1025 99.1157 30.1129C99.5278 29.1544 100.136 28.2929 100.902 27.5838C101.679 26.8744 102.591 26.3279 103.583 25.9768C105.674 25.2298 107.959 25.2303 110.05 25.978C110.545 26.1496 111 26.361 111.413 26.6136C111.827 26.8673 112.186 27.144 112.488 27.4473L109.611 30.7787ZM127.846 40.9879L119.88 31.1122H119.819V40.9879H114.73V19.5388H119.819V28.2629H119.91L127.574 19.5388H134.056L124.817 29.4145L134.602 40.9867H127.846V40.9879ZM141.387 21.0866C141.387 21.4697 141.312 21.8273 141.16 22.1621C141.015 22.4859 140.809 22.7783 140.554 23.0248C140.007 23.5326 139.287 23.8141 138.54 23.8126C137.732 23.8126 137.055 23.5444 136.51 23.0091C136.248 22.7625 136.04 22.4642 135.899 22.1331C135.758 21.802 135.688 21.4452 135.692 21.0854C135.692 20.7229 135.763 20.3737 135.905 20.0402C136.046 19.7079 136.248 19.4191 136.51 19.1775C136.772 18.9358 137.076 18.7376 137.419 18.5866C137.762 18.4356 138.135 18.3594 138.54 18.3594C139.287 18.358 140.007 18.6395 140.554 19.1473C140.807 19.3889 141.009 19.6777 141.16 20.01C141.312 20.3435 141.387 20.7024 141.387 21.0854V21.0866ZM136.056 40.9879V25.9018H141.023V40.9879H136.056ZM150.354 29.6283V35.3836C150.354 36.0905 150.489 36.6198 150.762 36.9738C151.035 37.3266 151.525 37.5043 152.232 37.5043C152.473 37.5043 152.732 37.4837 153.004 37.4438C153.238 37.4148 153.468 37.3532 153.685 37.2626L153.746 40.8961C153.321 41.0373 152.885 41.144 152.443 41.2151C151.924 41.3057 151.397 41.3504 150.869 41.3504C149.858 41.3504 149.01 41.2247 148.324 40.9722C147.638 40.7196 147.087 40.3559 146.673 39.8823C146.251 39.3918 145.945 38.8117 145.779 38.1858C145.59 37.469 145.499 36.7301 145.507 35.989V29.6283H143.083V25.9018H145.477V21.9337H150.354V25.9018H153.898V29.6283H150.354Z" fill="#F1E4D5"/>
</g>
<defs>
<clipPath id="clip0_105_83">
<rect width="153.458" height="58" fill="white" transform="translate(0.507263)"/>
</clipPath>
</defs>
</svg>
