<svg width="190" height="58" viewBox="0 0 190 58" fill="none" xmlns="http://www.w3.org/2000/svg">
<g clip-path="url(#clip0_105_79)">
<path d="M66.6479 21.9651V18.9551H79.8241V21.9651H74.9225V38.7307H71.5146V21.9651H66.6479ZM88.4113 27.4956C87.8834 27.4014 87.3482 27.3545 86.812 27.3555C84.6234 27.3555 83.3367 28.791 83.3367 31.6958V38.6957H80.1018V24.8361H83.2657V26.796H83.3355C83.9608 25.6058 85.3521 24.3793 87.1956 24.3793C87.7163 24.3793 88.0638 24.4156 88.4113 24.4506V27.4956ZM103.883 38.6957H100.754V36.946H100.684C99.7464 38.1362 98.2505 39.2213 95.956 39.2213C92.8619 39.2213 89.3505 36.7358 89.3505 31.7659C89.3505 27.3555 92.4446 24.4156 96.1989 24.4156C98.4934 24.4156 99.8847 25.6396 100.72 26.7247H100.789V24.8349H103.918V38.6957H103.882H103.883ZM96.7906 36.3515C98.9106 36.3515 100.892 34.4955 100.892 31.8348C100.892 29.035 99.085 27.1803 96.8254 27.1803C93.9754 27.1803 92.6178 29.4906 92.6178 31.7659C92.6178 34.075 93.9406 36.3503 96.7906 36.3503V36.3515ZM107.639 24.8349H110.837V26.5858H110.906C111.983 25.0101 113.583 24.3805 115.112 24.3805C117.964 24.3805 120.467 26.2704 120.467 30.7158V38.6957H117.232V30.8898C117.232 28.5094 116.121 27.2503 114.278 27.2503C112.261 27.2503 110.871 28.6858 110.871 31.3804V38.7307H107.639V24.8349H107.64H107.639ZM130.237 28.4055C130.097 27.3905 129.332 26.7259 128.393 26.7259C127.281 26.7259 126.655 27.4255 126.655 28.1953C126.655 29.035 127.073 29.6308 129.471 30.4355C132.426 31.3804 133.469 32.921 133.469 34.881C133.469 37.4354 131.557 39.2213 128.393 39.2213C125.091 39.2213 123.457 37.4003 123.213 34.8109H126.203C126.342 35.966 127.038 36.8409 128.463 36.8409C129.68 36.8409 130.375 36.0712 130.375 35.125C130.375 34.0762 129.784 33.4104 127.49 32.6407C124.917 31.8009 123.595 30.5056 123.595 28.3354C123.595 26.0601 125.369 24.3805 128.288 24.3805C131.244 24.3805 132.809 26.1302 133.156 28.4043H130.237V28.4055ZM136.285 18.4645H139.866V21.7548H136.285V18.4645ZM136.46 24.8349H139.692V38.7307H136.46V24.8349ZM149.671 28.4055C149.531 27.3905 148.766 26.7259 147.827 26.7259C146.715 26.7259 146.09 27.4255 146.09 28.1953C146.09 29.035 146.507 29.6308 148.906 30.4355C151.861 31.3804 152.903 32.921 152.903 34.881C152.903 37.4354 150.991 39.2213 147.827 39.2213C144.525 39.2213 142.891 37.4003 142.648 34.8109H145.637C145.777 35.966 146.472 36.8409 147.897 36.8409C149.114 36.8409 149.809 36.0712 149.809 35.125C149.809 34.0762 149.219 33.4104 146.924 32.6407C144.351 31.8009 143.03 30.5056 143.03 28.3354C143.03 26.0601 144.803 24.3805 147.724 24.3805C150.678 24.3805 152.243 26.1302 152.59 28.4043H149.671V28.4055ZM154.294 24.8349H156.032V20.3906H159.266V24.8349H162.707V27.5657H159.231V33.7608C159.231 35.6507 159.822 36.1763 161.143 36.1763C161.7 36.1763 162.325 36.0712 162.812 35.931V38.5555C162.082 38.7658 161.178 38.8709 160.378 38.8709C156.936 38.8709 156.032 36.7708 156.032 33.936V27.5657H154.294V24.8349ZM171.504 24.3805C175.815 24.3805 178.874 27.5657 178.874 31.7659C178.874 35.8609 175.78 39.2213 171.504 39.2213C167.297 39.2213 164.134 35.966 164.134 31.7659C164.134 27.4606 167.332 24.3805 171.504 24.3805ZM171.504 36.3153C173.938 36.3153 175.606 34.3553 175.606 31.7659C175.606 29.3154 174.041 27.2503 171.504 27.2503C169.035 27.2503 167.401 29.1752 167.401 31.7659C167.401 34.4254 169.279 36.3153 171.504 36.3153ZM188.402 27.3555C186.211 27.3555 184.925 28.791 184.925 31.6958V38.6957H181.692V24.8361H184.856V26.796H184.925C185.551 25.6058 186.941 24.3793 188.784 24.3793C189.305 24.3793 189.652 24.4156 190.001 24.4506V27.4956C189.473 27.4014 188.938 27.3545 188.402 27.3555ZM25.0319 45.5916C24.589 45.591 24.1645 45.4138 23.8515 45.0988C23.5386 44.7839 23.3628 44.3571 23.3628 43.912V13.7388C23.3633 13.4074 23.4615 13.0835 23.6449 12.8081C23.8284 12.5327 24.0888 12.318 24.3935 12.1911C24.6982 12.0642 25.0334 12.0308 25.3569 12.095C25.6805 12.1593 25.9779 12.3184 26.2116 12.5522C26.5243 12.8663 26.6998 13.2941 26.6998 13.7388V43.9108C26.6998 44.8207 25.935 45.5904 25.0319 45.5904V45.5916ZM18.0777 30.5068H10.0808C9.63814 30.5058 9.21391 30.3285 8.90122 30.0136C8.58853 29.6987 8.41292 29.272 8.41292 28.8272C8.41292 27.8811 9.14285 27.1464 10.082 27.1464H18.0789C18.5222 27.1464 18.9473 27.3234 19.2608 27.6384C19.5743 27.9533 19.7504 28.3806 19.7504 28.826C19.7504 29.2715 19.5743 29.6987 19.2608 30.0137C18.9473 30.3286 18.5222 30.5056 18.0789 30.5056V30.5068H18.0777ZM40.0155 30.5068H31.9849C31.542 30.5062 31.1175 30.3289 30.8046 30.014C30.4916 29.6991 30.3158 29.2722 30.3158 28.8272C30.3158 27.8811 31.0458 27.1464 31.9849 27.1464H39.9818C40.4245 27.1474 40.8487 27.3248 41.1614 27.6396C41.4741 27.9545 41.6497 28.3812 41.6497 28.826C41.6497 29.7709 40.9198 30.5056 40.0155 30.5056V30.5068Z" fill="#F1E4D5"/>
<path d="M25.0319 54.027C11.2292 54.027 0 42.7218 0 28.826C0 14.9302 11.2292 3.625 25.0319 3.625C38.8346 3.625 50.0638 14.9302 50.0638 28.826C50.0638 42.7218 38.8346 54.027 25.0319 54.027ZM25.0319 6.98537C13.0727 6.98537 3.33823 16.785 3.33823 28.826C3.33823 40.867 13.0727 50.6666 25.0319 50.6666C36.9923 50.6666 46.7256 40.867 46.7256 28.826C46.7256 16.785 36.9935 6.98537 25.0331 6.98537H25.0319Z" fill="#F1E4D5"/>
</g>
<defs>
<clipPath id="clip0_105_79">
<rect width="190" height="58" fill="white"/>
</clipPath>
</defs>
</svg>
