<svg width="127" height="58" viewBox="0 0 127 58" fill="none" xmlns="http://www.w3.org/2000/svg">
<g clip-path="url(#clip0_105_61)">
<path fill-rule="evenodd" clip-rule="evenodd" d="M21.687 4.83334L0 12.0833V35.6458L7.22899 38.0625V44.7083L28.9159 51.9583V13.8958L21.687 16.3125V4.83334ZM9.63865 38.8685L21.687 42.8958V18.8597L26.5063 17.249V48.6052L9.63865 42.9683V38.8685Z" fill="#F1E4D5"/>
<path d="M51.6872 24.7104V37.4583H57.0439V24.7104H61.297V20.6118H47.4583V24.7116H51.6872V24.7104ZM63.9825 30.508C63.9825 35.3148 66.7537 37.7653 71.6645 37.7653C76.3634 37.7653 79.3706 35.5262 79.3706 30.4609V20.613H74.0128V30.2724C74.0128 32.4873 73.5429 33.5711 71.6633 33.5711C69.7597 33.5711 69.2898 32.4873 69.2898 30.2965V20.6118H63.9813V30.508H63.9825Z" fill="#F1E4D5"/>
<path fill-rule="evenodd" clip-rule="evenodd" d="M83.0912 37.4583V20.6118H89.7876C94.6274 20.6118 96.6949 22.7795 96.6949 26.384V26.4782C96.6949 29.9896 94.3696 31.9689 90.0226 31.9689H88.4009V37.4583H83.0912ZM89.5045 28.3874H88.4009V24.5932H89.5286C90.9141 24.5932 91.6431 25.1128 91.6431 26.4081V26.5024C91.6431 27.7506 90.9141 28.3874 89.5045 28.3874Z" fill="#F1E4D5"/>
<path d="M99.4745 37.4583V20.6118H104.808V33.3355H110.917V37.4583H99.4745ZM113.931 20.6118V37.4583H126.242V33.3585H119.241V30.8379H124.504V27.092H119.241V24.7116H125.866V20.6118H113.931Z" fill="#F1E4D5"/>
</g>
<defs>
<clipPath id="clip0_105_61">
<rect width="126.507" height="58" fill="white"/>
</clipPath>
</defs>
</svg>
